<svg width="58" height="58" viewBox="0 0 58 58" fill="none" xmlns="http://www.w3.org/2000/svg">
<path d="M11.9301 47.1001C9.40005 44.5701 8 41.1996 8 37.6196C8 34.0396 9.40005 30.6699 11.9301 28.1299L28.1201 11.9297C30.6601 9.39969 34.0201 8 37.6101 8C41.2001 8 44.5701 9.39969 47.1101 11.9297L47.51 12.3301L45.3501 14.4897L44.9501 14.1001C42.9901 12.1501 40.39 11.0698 37.63 11.0698C34.86 11.0698 32.26 12.1499 30.3 14.1099L14.1001 30.2998C12.1401 32.2598 11.0701 34.8599 11.0701 37.6299C11.0701 40.3999 12.1501 42.9897 14.1001 44.9497L14.4901 45.3398L13.42 46.4199L12.3301 47.5L11.9401 47.1099L11.9301 47.1001ZM21.5801 46.23C19.2401 46.23 17.03 45.3197 15.38 43.6597C13.72 41.9997 12.8001 39.7997 12.8101 37.4497C12.8101 35.0997 13.72 32.8997 15.38 31.2397L24.15 22.4697L25.01 23.77L35.3601 34.1299L36.3501 35.1099L27.79 43.6699C26.13 45.3299 23.9301 46.2397 21.5801 46.2397V46.23ZM17.3401 33.1997C16.2101 34.3297 15.5801 35.8397 15.5801 37.4497C15.5801 39.0597 16.2001 40.5599 17.3301 41.6899C18.4601 42.8199 19.9601 43.4497 21.5701 43.4497C23.1801 43.4497 24.6901 42.8299 25.8301 41.6899L32.42 35.1001L23.9301 26.6099L17.3401 33.1997Z" fill="#373737"/>
<path d="M45.7303 13.2998C47.8903 15.4698 49.0903 18.3497 49.0903 21.4097C49.0903 24.4697 47.9003 27.37 45.7303 29.54L29.5303 45.73C27.3603 47.9 24.4903 49.0898 21.4303 49.0898C18.5403 49.0898 15.8103 48.0396 13.6903 46.1196L13.1104 46.6997C15.3904 48.7797 18.3203 49.9199 21.4303 49.9199C24.7003 49.9199 27.7804 48.6398 30.1104 46.3198L46.3103 30.1299C48.6403 27.8099 49.9103 24.7099 49.9103 21.4199C49.9103 18.1399 48.6403 15.06 46.3103 12.73" stroke="#009845" stroke-width="2" stroke-miterlimit="10"/>
</svg>
