<svg width="54" height="54" viewBox="0 0 54 54" fill="none" xmlns="http://www.w3.org/2000/svg">
<rect width="54" height="54" rx="27" fill="#373737"/>
<path d="M29.5 14.8369V20.0001C29.5 20.7002 29.5 21.0502 29.6362 21.3176C29.7561 21.5528 29.9473 21.744 30.1825 21.8638C30.4499 22.0001 30.7999 22.0001 31.5 22.0001H36.6632M23.25 30.75L27 34.5M27 34.5L30.75 30.75M27 34.5L27 27M29.5 14.5H23C20.8998 14.5 19.8497 14.5 19.0475 14.9087C18.3419 15.2683 17.7683 15.8419 17.4087 16.5475C17 17.3497 17 18.3998 17 20.5V33.5C17 35.6002 17 36.6503 17.4087 37.4525C17.7683 38.1581 18.3419 38.7317 19.0475 39.0913C19.8497 39.5 20.8998 39.5 23 39.5H31C33.1002 39.5 34.1503 39.5 34.9525 39.0913C35.6581 38.7317 36.2317 38.1581 36.5913 37.4525C37 36.6503 37 35.6002 37 33.5V22L29.5 14.5Z" stroke="white" stroke-width="2" stroke-linecap="round" stroke-linejoin="round"/>
</svg>
