<svg width="680" height="770" viewBox="0 0 600 770" fill="none" xmlns="http://www.w3.org/2000/svg">
<path d="M390.817 134.334L494.653 238.171C501.939 245.456 513.774 245.456 521.06 238.171L680.395 78.8353C749.197 10.0337 861.189 7.79589 930.761 75.8266C966.268 110.538 983.997 156.439 983.997 202.34C983.997 248.241 966.716 292.898 932.178 327.436" stroke="#6F1D46" stroke-width="52" stroke-miterlimit="10" stroke-linecap="square"/>
<path d="M377.765 633.052L71.0799 344.27C1.97999 275.17 16.6255 148.532 85.7254 79.432C120.263 44.8945 165.542 27.6133 210.821 27.6133C256.101 27.6133 301.38 44.8945 335.917 79.432L390.795 134.309" stroke="#D02C2F" stroke-width="52" stroke-miterlimit="10" stroke-linecap="square"/>
<path d="M377.768 633.052L487.025 735.919C497.542 745.815 514.003 745.567 524.198 735.372L932.159 327.411" stroke="#009845" stroke-width="52" stroke-miterlimit="10" stroke-linecap="square"/>
</svg>
