<svg width="58" height="58" viewBox="0 0 58 58" fill="none" xmlns="http://www.w3.org/2000/svg">
<path d="M26.5801 42.1602C36.8401 42.1602 45.16 33.8401 45.17 23.5801C45.17 13.3201 36.8501 5 26.5801 5C16.3101 5 8 13.3101 8 23.5801C8 33.8501 16.3201 42.1602 26.5801 42.1602ZM26.5801 7.24023C35.6101 7.25023 42.9101 14.5501 42.9301 23.5801C42.9101 32.6101 35.6101 39.9099 26.5801 39.9199C17.5601 39.9099 10.26 32.6101 10.24 23.5801C10.26 14.5501 17.5601 7.25023 26.5801 7.24023ZM42.01 39.0103C37.75 43.2803 32.1701 45.3999 26.5801 45.3999C20.9901 45.3999 15.41 43.2703 11.15 39.0103L9.57007 40.5898C13.9901 45.0098 19.73 47.3701 25.54 47.6201V51.0498H18.52V53.29H34.8101V51.0498H27.77V47.6099C33.52 47.3299 39.2001 44.9798 43.5901 40.5898" fill="#373737"/>
<path d="M43.6797 40.54C48.3797 35.84 50.7396 29.68 50.7396 23.52C50.7396 17.36 48.3897 11.2 43.6797 6.5L42.0996 8.08008C46.3696 12.3501 48.4996 17.9203 48.4996 23.5103C48.4996 29.1003 46.3696 34.6799 42.0996 38.9399" fill="#009743"/>
</svg>
