<svg width="682" height="771" viewBox="0 0 682 771" fill="none" xmlns="http://www.w3.org/2000/svg">
<path d="M390.817 135.334L494.653 239.171C501.939 246.456 513.774 246.456 521.06 239.171L680.395 79.8353C749.197 11.0337 861.189 8.79589 930.761 76.8266C966.268 111.538 983.997 157.439 983.997 203.34C983.997 249.241 966.716 293.898 932.178 328.436" stroke="white" stroke-width="52" stroke-miterlimit="10" stroke-linecap="square"/>
<path d="M377.765 634.052L71.0799 345.27C1.97999 276.17 16.6255 149.532 85.7254 80.432C120.263 45.8945 165.542 28.6133 210.821 28.6133C256.101 28.6133 301.38 45.8945 335.917 80.432L390.795 135.309" stroke="#D02C2F" stroke-width="52" stroke-miterlimit="10" stroke-linecap="square"/>
<path d="M377.768 634.051L487.025 736.918C497.542 746.814 514.003 746.566 524.198 736.371L932.159 328.41" stroke="#009845" stroke-width="52" stroke-miterlimit="10" stroke-linecap="square"/>
</svg>
