<svg xmlns="http://www.w3.org/2000/svg" xmlns:xlink="http://www.w3.org/1999/xlink" width="16" height="16" viewBox="0 0 16 16">
    <defs>
        <path id="a" d="M6 6.5a1 1 0 0 0-1-1h-.5a2 2 0 0 0-2 2V9a2 2 0 0 0 2 2H5a1 1 0 0 0 1-1V6.5zm5.5 4.5a2 2 0 0 0 2-2V7.5a2 2 0 0 0-2-2H11a1 1 0 0 0-1 1V10a1 1 0 0 0 1 1h.5zM8 0C3.537 0 .143 3.713 0 8v.5a.5.5 0 0 0 .5.5H1a.5.5 0 0 0 .5-.5V8c0-3.584 2.916-6.5 6.5-6.5s6.5 2.916 6.5 6.5h-.004c.003.076.004 5.179.004 5.179 0 .73-.592 1.321-1.321 1.321H10A1.5 1.5 0 0 0 8.5 13h-1a1.5 1.5 0 1 0 0 3h5.679A2.821 2.821 0 0 0 16 13.179V8c-.143-4.287-3.537-8-8-8z"/>
    </defs>
    <g fill="none" fill-rule="evenodd">
        <mask id="b" fill="#fff">
            <use xlink:href="#a"/>
        </mask>
        <g fill="#C5D0DE" mask="url(#b)">
            <path d="M-32-35h86v86h-86z"/>
        </g>
    </g>
</svg>
