<svg width="136" height="68" viewBox="0 0 136 68" fill="none" xmlns="http://www.w3.org/2000/svg">
<path d="M10.2834 30.1432C10.857 29.9092 11.3342 29.5879 11.7013 29.1841C11.8665 29.3356 12.0455 29.4778 12.2336 29.6155C12.4952 29.8036 12.7981 29.9734 13.1239 30.1111C13.4542 30.2487 13.8259 30.3589 14.2343 30.4369C14.6473 30.5149 15.1062 30.5516 15.5972 30.5516H47.2917V25.2653C47.2917 24.4669 47.1816 23.7419 46.9705 23.104C46.7503 22.4524 46.4336 21.9018 46.0252 21.4567C45.6123 21.007 45.1029 20.6628 44.511 20.4242C43.9282 20.1902 43.2536 20.0663 42.5057 20.0663C41.7577 20.0663 41.0327 20.2039 40.3857 20.4747C39.7386 20.7454 39.1788 21.1263 38.7108 21.5989C38.2427 22.0716 37.871 22.636 37.6003 23.2784C37.3341 23.9162 37.2011 24.6137 37.2011 25.3479C37.2011 25.6554 37.224 25.9491 37.2653 26.2244C37.3066 26.5089 37.3663 26.775 37.4443 27.0182C37.5223 27.2706 37.6141 27.4863 37.7104 27.679C37.7425 27.7433 37.7792 27.8029 37.8114 27.858H15.6247C14.9043 27.858 14.2848 27.7892 13.78 27.6515C13.3349 27.5276 12.9357 27.3486 12.6007 27.11C12.6374 26.8668 12.6558 26.6144 12.6558 26.3575C12.6558 25.7242 12.5181 25.068 12.2566 24.4164C11.995 23.7786 11.6463 23.1453 11.2241 22.5396C10.8019 21.9293 10.3201 21.3419 9.797 20.7821C9.27847 20.2269 8.73241 19.7038 8.17717 19.2265L8.01657 19.0889L6.03881 21.0391L6.24072 21.1997C6.72254 21.5897 7.20436 22.0165 7.67241 22.4662C8.14964 22.9251 8.57639 23.3885 8.9435 23.8474C9.31518 24.3063 9.61804 24.7743 9.84289 25.2424C10.0632 25.6875 10.1733 26.1143 10.1733 26.5181C10.1733 26.7337 10.1366 26.9265 10.0677 27.0917C10.0081 27.2385 9.88878 27.367 9.70982 27.4817C9.52627 27.601 9.25553 27.6928 8.91137 27.757C8.55345 27.8259 8.08081 27.858 7.51639 27.858H3.12036V30.547H7.80089C8.80124 30.547 9.6364 30.4093 10.2926 30.1386M39.7478 25.2883C39.7478 24.8982 39.8121 24.5357 39.9406 24.2191C40.0645 23.9025 40.2434 23.6272 40.4637 23.3977C40.6839 23.1775 40.9455 22.9985 41.2484 22.87C41.5512 22.7415 41.877 22.6773 42.2212 22.6773C42.5286 22.6773 42.8361 22.7278 43.1297 22.8287C43.4097 22.9251 43.662 23.0857 43.8731 23.3105C44.0934 23.5446 44.2723 23.8612 44.4008 24.2512C44.5385 24.6504 44.6027 25.1598 44.6027 25.7701V27.8626H42.7856C42.3038 27.8626 41.8678 27.7983 41.487 27.6698C41.1153 27.5459 40.7941 27.367 40.5417 27.1421C40.2893 26.9265 40.092 26.6603 39.9543 26.3437C39.8121 26.0271 39.7432 25.6737 39.7432 25.2883" fill="#333333"/>
<path d="M42.4828 17.8087C43.2996 17.8087 43.9604 17.1479 43.9604 16.3311C43.9604 15.5143 43.295 14.8535 42.4828 14.8535C41.6706 14.8535 41.0006 15.5143 41.0006 16.3357C41.0006 17.1571 41.666 17.8133 42.4828 17.8133" fill="#333333"/>
<path d="M53.5783 13.3623H50.8893V30.5656H53.5783V13.3623Z" fill="#333333"/>
<path d="M67.2803 23.9116C67.1427 23.315 66.9454 22.7919 66.7067 22.356C66.4681 21.9246 66.179 21.5575 65.8532 21.2639C65.5228 20.9748 65.1879 20.7499 64.8254 20.5801C64.4674 20.4104 64.0957 20.2956 63.7241 20.2268C62.453 20.0065 61.3379 20.158 60.4018 20.5434C59.7272 20.8188 59.1399 21.2042 58.6581 21.6906C58.1762 22.1816 57.8 22.7552 57.543 23.4068C57.286 24.0584 57.153 24.7651 57.153 25.5039C57.153 26.0912 57.2493 26.697 57.4466 27.2981C57.6348 27.9038 57.9514 28.459 58.3827 28.9454C58.8141 29.4319 59.3739 29.8311 60.0485 30.1339C60.7276 30.4414 61.5627 30.5928 62.5264 30.5928C62.7053 30.5928 62.8981 30.5836 63.1137 30.5653C63.3294 30.5469 63.5497 30.5194 63.7791 30.4827C64.0086 30.446 64.2426 30.3909 64.4766 30.3221C64.5409 30.3037 64.6051 30.2808 64.6693 30.2578C64.5546 30.5469 64.3986 30.8222 64.2013 31.0792C63.9076 31.4647 63.513 31.8088 63.0357 32.1025C62.5493 32.4008 61.9574 32.644 61.2782 32.8367C60.5899 33.0294 59.7915 33.1579 58.8967 33.2268L58.6581 33.2451L58.9472 35.8469L59.1766 35.824C60.3697 35.7093 61.4847 35.4982 62.4851 35.1953C63.5038 34.8925 64.394 34.4382 65.1328 33.8371C65.8762 33.2359 66.4635 32.4558 66.8765 31.5197C67.2895 30.5836 67.5006 29.4181 67.5006 28.0552V25.9811C67.5006 25.201 67.4318 24.5035 67.2895 23.907M64.8116 26.6878V27.6009C64.7519 27.6239 64.6831 27.6422 64.6051 27.6652C64.4491 27.7111 64.2793 27.7478 64.0912 27.7845C63.903 27.8212 63.7057 27.8487 63.4992 27.8671C62.6962 27.9451 61.9803 27.8717 61.448 27.6835C61.058 27.5413 60.7414 27.3531 60.4982 27.1237C60.255 26.8897 60.0806 26.6281 59.9659 26.3253C59.8557 26.0132 59.7961 25.6874 59.7961 25.3433C59.7961 24.9395 59.8603 24.5724 59.9888 24.2511C60.1173 23.9253 60.2963 23.6408 60.5165 23.4068C60.7322 23.1774 60.9983 22.9938 61.2966 22.8699C61.5995 22.7414 61.9253 22.6772 62.2694 22.6772C62.5815 22.6772 62.8935 22.7277 63.2009 22.8332C63.4946 22.9296 63.7562 23.1177 63.9856 23.393C64.2242 23.673 64.4215 24.0814 64.5684 24.6045C64.7244 25.1322 64.8024 25.8343 64.8024 26.6924" fill="#333333"/>
<path d="M19.7867 54.8586L16.4094 41.5191L16.3681 41.3447H12.6696L9.29682 54.854L5.57075 41.5145L5.52486 41.3447H2.4458L7.55768 58.2589H11.0773L14.5188 44.5064L17.942 58.2589H21.3423L26.546 41.3447H23.5633L19.7867 54.8586Z" fill="#333333"/>
<path d="M37.3525 57.2259C37.3387 56.8772 37.3295 56.3587 37.3295 55.6704V50.7007C37.3295 49.0075 36.9303 47.7043 36.1456 46.8278C35.3609 45.9422 34.0577 45.4971 32.2681 45.4971C31.4834 45.4971 30.7401 45.6072 30.0563 45.8229C29.3818 46.0385 28.7577 46.3185 28.1887 46.658L28.0694 46.7314L28.2208 49.2094L28.5696 48.9249C29.0055 48.567 29.524 48.2824 30.116 48.0714C30.7034 47.8649 31.3091 47.7593 31.9102 47.7593C32.9518 47.7593 33.6723 47.9979 34.0531 48.466C34.4111 48.9019 34.6084 49.5535 34.6359 50.407C34.5074 50.3979 34.3835 50.3933 34.2642 50.3887C34.0715 50.3795 33.8834 50.3795 33.6998 50.3795H32.5251C31.9331 50.3795 31.2999 50.4529 30.6437 50.5906C29.9646 50.7237 29.3313 50.9531 28.7577 51.2697C28.4686 51.4303 28.1979 51.6185 27.9501 51.825C27.6977 52.0361 27.4729 52.2793 27.2893 52.55C27.1058 52.8207 26.9589 53.1282 26.858 53.4632C26.757 53.7981 26.7065 54.1698 26.7065 54.5645C26.7065 55.2528 26.8213 55.8585 27.0507 56.3587C27.2801 56.8634 27.6105 57.2856 28.0281 57.6114C28.4457 57.9372 28.9413 58.1758 29.5103 58.3272C30.0701 58.4741 30.6896 58.5475 31.3458 58.5475C31.8643 58.5475 32.3415 58.4833 32.7683 58.3548C33.195 58.2263 33.5713 58.0611 33.8879 57.8729C34.2138 57.6802 34.4937 57.4691 34.7231 57.2397C34.7828 57.1801 34.8378 57.1204 34.8883 57.0653V58.263H37.4672L37.4213 57.9923C37.3938 57.8271 37.3708 57.5701 37.357 57.2259M34.6497 52.527V53.3576C34.6497 54.1974 34.3927 54.8811 33.8604 55.4547C33.3419 56.0191 32.5802 56.2898 31.5431 56.2898C31.3091 56.2898 31.0796 56.2485 30.841 56.1705C30.6024 56.0879 30.3775 55.9732 30.1802 55.8264C29.9829 55.6795 29.8315 55.5006 29.7076 55.2849C29.5883 55.0784 29.5332 54.8444 29.5332 54.5645C29.5332 54.0964 29.6663 53.7339 29.9462 53.4632C30.2399 53.1741 30.5978 52.963 31.0154 52.8253C31.4559 52.6647 31.901 52.5683 32.3278 52.5408L32.9702 52.4995C33.1583 52.4858 33.3235 52.4812 33.475 52.4812C33.6998 52.4812 33.9292 52.4903 34.1633 52.5041C34.3285 52.5133 34.4891 52.5225 34.6497 52.5225" fill="#333333"/>
<path d="M46.3098 39.835C45.4563 39.835 44.7404 39.9589 44.1944 40.2021C43.6391 40.4453 43.194 40.8032 42.8728 41.2575C42.5608 41.7072 42.3405 42.2486 42.2258 42.8727C42.1111 43.4876 42.056 44.1713 42.056 44.9009V45.7866H39.2247V48.0305H42.056V58.2588H44.7312V48.0305H47.9158V45.7866H44.7312V44.7174C44.7312 44.3228 44.7542 43.9511 44.7955 43.6161C44.8414 43.2995 44.9286 43.0241 45.0616 42.7993C45.1855 42.5836 45.3737 42.4138 45.6169 42.2899C45.9656 42.111 46.5438 42.0467 47.1908 42.1293C47.3698 42.1523 47.5166 42.1798 47.6267 42.2211L47.9204 42.3267L48.0397 40.0185L47.1312 39.89C46.8788 39.8533 46.6035 39.835 46.3098 39.835Z" fill="#333333"/>
<path d="M52.7431 45.7861H50.0587V58.263H52.7431V45.7861Z" fill="#333333"/>
<path d="M51.4033 40.5967C50.5865 40.5967 49.9211 41.262 49.9211 42.0788C49.9211 42.8956 50.5865 43.5564 51.4033 43.5564C52.2201 43.5564 52.8809 42.8956 52.8809 42.0743C52.8809 41.2529 52.2155 40.5967 51.4033 40.5967Z" fill="#333333"/>
<path d="M64.7427 47.0252C64.4261 46.6627 64.0361 46.3461 63.5818 46.0799C62.9118 45.6945 62.0262 45.4972 60.9478 45.4972C60.0393 45.4972 59.2362 45.6715 58.5571 46.0157C57.8825 46.3599 57.309 46.8325 56.8593 47.4153C56.4096 47.9934 56.07 48.6726 55.8497 49.4343C55.6341 50.1869 55.5239 50.9853 55.5239 51.8067C55.5239 52.6281 55.6249 53.4587 55.8222 54.2617C56.0241 55.0601 56.3453 55.7852 56.7767 56.4184C57.2172 57.0562 57.7816 57.5748 58.4607 57.9602C59.1445 58.3503 59.9704 58.5476 60.9249 58.5476C61.471 58.5476 61.9803 58.4833 62.4392 58.3549C62.8843 58.2264 63.2973 58.0612 63.6644 57.8547C64.0269 57.6482 64.3389 57.4233 64.6005 57.1847C64.6877 57.1067 64.7657 57.0241 64.8391 56.9461V58.2585H67.418V40.1191H64.7473V47.0206L64.7427 47.0252ZM63.9076 49.0626C64.1875 49.4664 64.3986 49.9299 64.5362 50.4393C64.6739 50.9532 64.7473 51.4947 64.7473 52.0407C64.7473 52.518 64.6831 53.0181 64.55 53.5275C64.4261 54.0231 64.2242 54.4865 63.9535 54.8995C63.6919 55.3033 63.3478 55.6383 62.9348 55.8999C62.5218 56.1569 62.0308 56.2853 61.4434 56.2853C61.0763 56.2853 60.7459 56.2211 60.4614 56.0972C60.1677 55.9687 59.9016 55.7989 59.6722 55.5878C59.4381 55.3722 59.2362 55.1198 59.071 54.8353C58.9012 54.5462 58.759 54.2342 58.6489 53.9129C58.5387 53.5917 58.4561 53.2613 58.4103 52.931C58.3644 52.596 58.3414 52.2793 58.3506 51.9811V51.9673C58.3368 51.435 58.3873 50.9073 58.4974 50.398C58.6122 49.8932 58.7957 49.4343 59.0435 49.0443C59.2867 48.6588 59.6079 48.3422 60.0026 48.1082C60.388 47.8741 60.8606 47.7548 61.4205 47.7548C61.9803 47.7548 62.4621 47.8741 62.8705 48.1082C63.2835 48.3422 63.6323 48.6634 63.9076 49.0626Z" fill="#333333"/>
<path d="M87.7049 29.0052C87.9573 29.1887 88.2693 29.2668 88.5767 29.2209L94.4595 28.3215C96.0656 28.0783 97.2266 26.619 97.1118 24.9992L96.2537 13.2336C96.2216 12.839 96.0014 12.4903 95.6572 12.3021C95.4828 12.2012 95.2855 12.1553 95.0836 12.1553C94.8955 12.1553 94.7027 12.2012 94.5284 12.2883C94.0511 12.5361 93.5693 12.8115 93.0921 13.096C92.7158 13.3208 92.5047 13.7384 92.5368 14.1835L93.2389 23.8428C93.2756 24.3201 92.9315 24.7422 92.4588 24.8157L88.0031 25.4994C87.6911 25.5453 87.4204 25.7105 87.2322 25.9628C87.0487 26.2152 86.9707 26.5227 87.0212 26.8347L87.2368 28.2526C87.2827 28.5601 87.4479 28.8308 87.7003 29.019" fill="#D02C2F"/>
<path d="M128.527 48.2733L123.796 39.8254C123.562 39.4078 123.69 38.8755 124.08 38.614L127.834 36.1039C128.095 35.9295 128.27 35.668 128.334 35.3559C128.393 35.0531 128.334 34.741 128.155 34.4795L127.356 33.2864C127.132 32.9514 126.764 32.7725 126.384 32.7725C126.159 32.7725 125.934 32.8367 125.737 32.9698L120.79 36.2783C119.436 37.1777 119.005 38.9948 119.803 40.4127L125.567 50.7053C125.76 51.0495 126.113 51.2697 126.503 51.2973C126.535 51.2973 126.563 51.2973 126.586 51.2973C126.962 51.2973 127.301 51.1275 127.522 50.8292C127.843 50.4071 128.169 49.9574 128.485 49.4893C128.733 49.1268 128.747 48.6587 128.527 48.2733Z" fill="#D02C2F"/>
<path d="M102.357 48.6914C101.724 47.1955 100.021 46.4291 98.4839 46.9523L87.3011 50.7013C86.9294 50.8252 86.6449 51.128 86.5439 51.5089C86.443 51.8944 86.5439 52.3028 86.8101 52.601C87.1772 53.0094 87.5581 53.4087 87.9481 53.7941C88.251 54.0924 88.7282 54.2071 89.1366 54.0648L98.3187 50.9858C98.4197 50.9537 98.5206 50.9399 98.617 50.9399C98.9795 50.9399 99.3099 51.151 99.4613 51.4997L101.228 55.648C101.347 55.9371 101.577 56.1573 101.866 56.2766C102.15 56.3913 102.476 56.3913 102.761 56.2674L104.078 55.7076C104.367 55.5883 104.587 55.3589 104.702 55.0652C104.821 54.7761 104.816 54.4549 104.692 54.1704L102.361 48.6914H102.357Z" fill="#6F1D46"/>
<path d="M132.115 27.404V27.3811C131.986 26.9497 131.619 26.6239 131.165 26.5505L120.804 24.8986C120.336 24.8252 119.996 24.3938 120.037 23.9212L120.4 19.4242C120.423 19.1122 120.326 18.8093 120.125 18.5707C119.918 18.3321 119.638 18.1852 119.326 18.1623L117.899 18.0476C117.862 18.0476 117.826 18.043 117.789 18.043C117.518 18.043 117.261 18.1393 117.045 18.3229C116.807 18.5248 116.665 18.8093 116.637 19.1213L116.164 25.0592C116.036 26.6744 117.188 28.1428 118.794 28.3998L131.147 30.373C131.5 30.4189 131.913 30.2995 132.184 30.0242C132.445 29.7489 132.555 29.3726 132.482 29.0009C132.381 28.4778 132.257 27.9409 132.12 27.404" fill="#333333"/>
<path d="M89.6185 40.0228L87.3562 43.9279C87.2002 44.1986 87.1589 44.5152 87.2415 44.8135C87.3195 45.1164 87.5122 45.3687 87.783 45.5293L89.0265 46.2452C89.568 46.5572 90.3159 46.3507 90.6234 45.8184L93.6015 40.6653C94.4183 39.2611 94.0099 37.4439 92.67 36.5216L82.9602 29.8266C82.7628 29.6889 82.5334 29.6201 82.2948 29.6201C82.148 29.6201 81.9965 29.6476 81.8589 29.7027C81.4872 29.8541 81.221 30.1799 81.143 30.5746C81.0421 31.0885 80.9503 31.6208 80.8723 32.199C80.8126 32.6303 81.0054 33.0571 81.3725 33.3095L89.3477 38.8068C89.7378 39.0775 89.8571 39.6098 89.6185 40.0182" fill="#333333"/>
<path d="M104.513 21.4112C105.087 21.9435 105.844 22.2372 106.638 22.2372C107.432 22.2372 108.184 21.9435 108.763 21.4158L117.812 13.0918C118.11 12.8165 118.243 12.4173 118.17 12.0226C118.096 11.6188 117.825 11.2884 117.445 11.137C116.926 10.9305 116.398 10.7378 115.866 10.5588C115.462 10.4258 115.026 10.5267 114.714 10.8158L107.276 17.6668C106.918 17.9926 106.377 17.988 106.028 17.6668L102.719 14.6015C102.513 14.4088 102.201 14.2895 101.916 14.2895H101.88C101.568 14.2987 101.278 14.4363 101.067 14.6612L100.095 15.712C99.8834 15.9414 99.7687 16.2351 99.7825 16.5517C99.7962 16.8638 99.9293 17.1529 100.159 17.3685L104.523 21.4204L104.513 21.4112Z" fill="#009845"/>
<path d="M120.345 48.0355L114.636 46.3514C114.347 46.2643 114.054 46.2275 113.764 46.2275C112.498 46.2275 111.305 47.0076 110.828 48.242L106.436 59.7277C106.289 60.1039 106.349 60.5215 106.592 60.8427C106.817 61.141 107.161 61.3154 107.537 61.3154C107.57 61.3154 107.602 61.3154 107.634 61.3108C108.198 61.2649 108.763 61.2007 109.304 61.1226C109.717 61.0676 110.07 60.7785 110.222 60.3839L113.838 50.9356C114.008 50.4905 114.489 50.2381 114.953 50.385L119.28 51.6606C119.583 51.7478 119.9 51.7111 120.17 51.5643C120.446 51.4128 120.648 51.165 120.735 50.8668L121.139 49.4901C121.322 48.8707 120.964 48.2191 120.345 48.0355Z" fill="#009845"/>
<path d="M107.574 63.7699C106.496 63.7699 105.509 63.2743 104.862 62.4162C104.165 61.4847 103.995 60.2779 104.413 59.1903L104.881 57.9651L103.61 58.5066C102.797 58.8554 101.866 58.8645 101.031 58.5341C100.191 58.1946 99.5347 57.5521 99.1814 56.7262L97.8598 53.6196L89.7148 56.3545C88.5355 56.7537 87.1497 56.4325 86.2686 55.556C85.8511 55.1431 85.4335 54.7071 85.0388 54.2666C84.2725 53.4131 83.988 52.243 84.2771 51.1371C84.5708 50.0358 85.3876 49.1593 86.4659 48.8014L87.8793 48.3287C87.8518 48.315 87.8288 48.3012 87.8013 48.2829L86.5531 47.5624C85.7685 47.1081 85.2086 46.3785 84.9792 45.5067C84.7498 44.6394 84.8691 43.7354 85.3142 42.9507L87.0074 40.0231L79.9316 35.1498C78.8761 34.4202 78.3255 33.1858 78.4999 31.9239C78.5916 31.2769 78.688 30.6987 78.7981 30.1527C79.0184 29.033 79.7847 28.1015 80.8447 27.6747C81.8818 27.2526 83.107 27.3857 84.0293 28.0235L84.9517 28.6613C84.9471 28.6292 84.9425 28.5925 84.9333 28.5604L84.713 27.1379C84.5754 26.2476 84.7911 25.3574 85.3279 24.6278C85.8602 23.8982 86.6449 23.4256 87.5397 23.2879L90.8757 22.7785L90.2517 14.2067C90.1599 12.9265 90.7794 11.7288 91.8715 11.0726C92.39 10.7606 92.9177 10.4669 93.4363 10.1962C94.4366 9.67764 95.6664 9.69141 96.6484 10.2375C97.6442 10.7927 98.2912 11.8022 98.3738 12.9357L98.4564 14.0874L99.4246 13.0458C100.035 12.385 100.865 12.0041 101.769 11.9674H101.88C102.738 11.9674 103.582 12.2932 104.197 12.8668L106.67 15.1612L113.31 9.04898C114.2 8.23218 115.508 7.94768 116.651 8.32395C117.215 8.51209 117.793 8.72318 118.362 8.94803C119.45 9.37937 120.225 10.3247 120.441 11.4764C120.652 12.6236 120.267 13.78 119.409 14.5693L118.115 15.7623C118.151 15.7623 118.193 15.7669 118.229 15.7715L119.624 15.8816C120.524 15.9551 121.341 16.3726 121.928 17.0564C122.511 17.7447 122.795 18.6165 122.726 19.5113L122.456 22.8795L131.743 24.3617C133.06 24.5727 134.134 25.5364 134.474 26.8258C134.625 27.4132 134.753 27.9822 134.873 28.5696C135.088 29.6617 134.767 30.7446 133.996 31.5522C133.239 32.3369 132.133 32.7086 131.046 32.548L129.513 32.3048L130.183 33.3006C130.683 34.0531 130.862 34.9525 130.688 35.8336C130.509 36.7238 129.999 37.4901 129.247 37.9857L126.443 39.8625L130.642 47.3605C131.271 48.4756 131.22 49.8293 130.504 50.8893C130.174 51.3757 129.825 51.8667 129.463 52.3393C128.761 53.2662 127.655 53.7618 126.517 53.6655C125.397 53.5875 124.392 52.9496 123.832 51.9539L123.217 50.8572L122.979 51.6648C122.726 52.5275 122.148 53.2387 121.359 53.6746C120.574 54.0968 119.638 54.1978 118.789 53.95L115.549 52.9955L112.328 61.4251C111.892 62.5723 110.869 63.389 109.662 63.5588C109.061 63.646 108.446 63.7149 107.845 63.7653C107.762 63.7745 107.666 63.7791 107.565 63.7791M105.73 56.483C105.808 56.483 105.886 56.5059 105.954 56.5472C106.12 56.6527 106.193 56.8638 106.12 57.0474L105.183 59.4932C104.871 60.3146 104.995 61.2186 105.523 61.9206C106.009 62.5723 106.753 62.9439 107.565 62.9439C107.634 62.9439 107.707 62.9439 107.772 62.9348C108.363 62.8889 108.955 62.82 109.543 62.7374C110.451 62.609 111.218 61.9941 111.548 61.1314L114.907 52.3393C114.985 52.1374 115.205 52.0273 115.412 52.0869L119.019 53.1515C119.656 53.3397 120.363 53.2617 120.955 52.945C121.552 52.6192 121.983 52.0823 122.176 51.4353L122.584 50.0449C122.616 49.9348 122.644 49.8155 122.657 49.7008C122.68 49.5218 122.818 49.3796 122.992 49.3475C123.171 49.3153 123.346 49.3979 123.433 49.5539L124.553 51.5546C124.97 52.3026 125.727 52.7844 126.572 52.8441C127.43 52.9175 128.26 52.5412 128.793 51.8437C129.146 51.3803 129.49 50.9076 129.807 50.4304C130.344 49.632 130.385 48.6178 129.912 47.7735L125.521 39.9405C125.415 39.7524 125.47 39.5092 125.654 39.3898L128.779 37.2974C129.343 36.9211 129.729 36.3475 129.862 35.6775C129.995 35.0168 129.862 34.3376 129.481 33.7686L128.673 32.5664C128.549 32.3828 128.389 32.213 128.178 32.0387C128.031 31.9193 127.985 31.7174 128.063 31.5477C128.141 31.3779 128.315 31.2769 128.508 31.309L131.16 31.7312C131.954 31.8505 132.812 31.5706 133.381 30.9787C133.964 30.3729 134.203 29.5561 134.042 28.7393C133.927 28.1657 133.804 27.6151 133.657 27.0415C133.4 26.0733 132.592 25.3482 131.601 25.1922L121.932 23.6504C121.717 23.6137 121.565 23.421 121.584 23.2053L121.887 19.4563C121.942 18.7817 121.726 18.1255 121.285 17.607C120.845 17.0885 120.23 16.7764 119.555 16.7214L118.151 16.6113C117.752 16.57 117.353 16.6342 116.954 16.804C116.77 16.882 116.55 16.8132 116.444 16.6434C116.334 16.4736 116.366 16.2487 116.513 16.1111L118.844 13.9681C119.491 13.3716 119.785 12.5043 119.624 11.6416C119.464 10.7744 118.876 10.0631 118.06 9.73729C117.504 9.51703 116.944 9.31054 116.394 9.12699C115.54 8.84248 114.549 9.05816 113.879 9.67305L106.959 16.0468C106.799 16.1937 106.551 16.1937 106.395 16.0468L103.637 13.4909C103.174 13.0596 102.54 12.8118 101.893 12.8118H101.802C101.132 12.8393 100.508 13.1284 100.049 13.624L99.0667 14.684C98.8327 14.9318 98.6583 15.2254 98.539 15.5558C98.4747 15.7394 98.2912 15.8541 98.0893 15.8312C97.892 15.8036 97.7451 15.643 97.7313 15.4503L97.5524 13.0183C97.4881 12.1647 97.0063 11.4076 96.2538 10.99C95.5242 10.5862 94.5743 10.5724 93.8355 10.9625C93.3307 11.224 92.8168 11.5131 92.312 11.816C91.4906 12.307 91.0272 13.211 91.096 14.1746L91.7476 23.1273C91.7614 23.343 91.6099 23.5357 91.3943 23.5678L87.6774 24.1368C87.0074 24.2378 86.4155 24.5957 86.0117 25.1463C85.6079 25.6924 85.4427 26.3624 85.5482 27.0323L85.7685 28.4548C85.8281 28.8678 85.9979 29.2533 86.264 29.6066C86.3879 29.7718 86.3742 29.9967 86.2365 30.1481C86.0943 30.2949 85.8694 30.3225 85.695 30.2032L83.5613 28.7348C82.8684 28.2529 81.946 28.152 81.1659 28.4732C80.3675 28.799 79.7893 29.4965 79.6241 30.3408C79.514 30.8777 79.4222 31.4375 79.335 32.0616C79.2065 33.0069 79.6195 33.9384 80.418 34.4891L87.8105 39.5826C87.9894 39.7065 88.0445 39.9451 87.9344 40.1378L86.0484 43.3958C85.7088 43.9832 85.6216 44.6669 85.796 45.3185C85.9704 45.9747 86.3925 46.5254 86.9799 46.8649L88.228 47.5854C88.5401 47.7689 88.9072 47.8745 89.3247 47.902C89.5221 47.9158 89.6827 48.0672 89.7102 48.2645C89.7377 48.4618 89.6184 48.65 89.4303 48.7142L86.7367 49.6182C85.9245 49.8889 85.3096 50.5451 85.0893 51.3757C84.8736 52.2062 85.0893 53.0919 85.6629 53.7343C86.0484 54.1611 86.4522 54.5832 86.8606 54.9916C87.5122 55.6386 88.5814 55.8864 89.4532 55.5927L97.9654 52.734C98.1765 52.6697 98.3967 52.7661 98.4839 52.968L99.9569 56.4279C100.223 57.052 100.719 57.5384 101.347 57.7908C101.981 58.0431 102.678 58.034 103.288 57.7724L104.619 57.2034C104.931 57.0703 105.211 56.8776 105.445 56.6344C105.528 56.5518 105.633 56.5059 105.748 56.5059" fill="#333333"/>
</svg>
