<svg width="54" height="54" viewBox="0 0 54 54" fill="none" xmlns="http://www.w3.org/2000/svg">
<rect width="54" height="54" rx="27" fill="#6F1D46"/>
<path d="M30.75 38.25V31.5C30.75 30.7999 30.75 30.4499 30.6138 30.1825C30.4939 29.9473 30.3027 29.7561 30.0675 29.6362C29.8001 29.5 29.4501 29.5 28.75 29.5H25.25C24.5499 29.5 24.1999 29.5 23.9325 29.6362C23.6973 29.7561 23.5061 29.9473 23.3862 30.1825C23.25 30.4499 23.25 30.7999 23.25 31.5V38.25M35.75 38.25V19.75C35.75 18.3499 35.75 17.6498 35.4775 17.115C35.2378 16.6446 34.8554 16.2622 34.385 16.0225C33.8502 15.75 33.1501 15.75 31.75 15.75H22.25C20.8499 15.75 20.1498 15.75 19.615 16.0225C19.1446 16.2622 18.7622 16.6446 18.5225 17.115C18.25 17.6498 18.25 18.3499 18.25 19.75V38.25M38.25 38.25H15.75M23.875 22H23.8875M30.125 22H30.1375M24.5 22C24.5 22.3452 24.2202 22.625 23.875 22.625C23.5298 22.625 23.25 22.3452 23.25 22C23.25 21.6548 23.5298 21.375 23.875 21.375C24.2202 21.375 24.5 21.6548 24.5 22ZM30.75 22C30.75 22.3452 30.4702 22.625 30.125 22.625C29.7798 22.625 29.5 22.3452 29.5 22C29.5 21.6548 29.7798 21.375 30.125 21.375C30.4702 21.375 30.75 21.6548 30.75 22Z" stroke="white" stroke-width="2" stroke-linecap="round" stroke-linejoin="round"/>
</svg>
