<svg width="58" height="58" viewBox="0 0 58 58" fill="none" xmlns="http://www.w3.org/2000/svg">
<path d="M21.7308 42.3601L5.40076 26.9802C1.72076 23.3002 2.50079 16.5601 6.18079 12.8801C8.02079 11.0401 10.4308 10.1199 12.8408 10.1199C15.2508 10.1199 17.6607 11.0401 19.5007 12.8801L22.4208 15.8L28.6508 22.03L37.9208 12.76C41.6008 9.08 47.5608 9.08 51.2408 12.76C53.0808 14.6 54.0007 17.0102 54.0007 19.4202C54.0007 21.8302 53.0808 24.2398 51.2408 26.0798" stroke="#3A3A38" stroke-width="3" stroke-miterlimit="10" stroke-linecap="square"/>
<path d="M21.7305 42.3599L27.5504 47.8398C28.1104 48.3698 28.9904 48.3496 29.5304 47.8096L51.2504 26.0898" stroke="#009845" stroke-width="3" stroke-miterlimit="10" stroke-linecap="square"/>
</svg>
