<svg width="133" height="56" viewBox="0 0 133 56" fill="none" xmlns="http://www.w3.org/2000/svg">
<path d="M7.83772 21.9837C8.41132 21.7496 8.88856 21.4284 9.25566 21.0246C9.42086 21.176 9.59982 21.3183 9.78796 21.456C10.0495 21.6441 10.3524 21.8139 10.6782 21.9516C11.0086 22.0892 11.3803 22.1994 11.7887 22.2774C12.2017 22.3554 12.6606 22.3921 13.1516 22.3921H44.8466V17.1058C44.8466 16.3073 44.7364 15.5823 44.5254 14.9444C44.3051 14.2928 43.9885 13.7421 43.5801 13.297C43.1671 12.8473 42.6577 12.5032 42.0658 12.2645C41.483 12.0305 40.8084 11.9066 40.0604 11.9066C39.3125 11.9066 38.5874 12.0443 37.9404 12.315C37.2934 12.5858 36.7335 12.9666 36.2655 13.4393C35.7974 13.9119 35.4257 14.4764 35.155 15.1188C34.8888 15.7566 34.7558 16.4541 34.7558 17.1884C34.7558 17.4958 34.7787 17.7895 34.82 18.0648C34.8613 18.3493 34.921 18.6155 34.999 18.8587C35.077 19.1111 35.1687 19.3267 35.2651 19.5195C35.2972 19.5837 35.3339 19.6434 35.3661 19.6984H13.1791C12.4587 19.6984 11.8392 19.6296 11.3344 19.4919C10.8893 19.368 10.4901 19.1891 10.1551 18.9505C10.1918 18.7073 10.2101 18.4549 10.2101 18.1979C10.2101 17.5646 10.0725 16.9084 9.81091 16.2568C9.54935 15.619 9.20059 14.9857 8.77842 14.38C8.35625 13.7697 7.87442 13.1823 7.3513 12.6225C6.83276 12.0672 6.28669 11.5441 5.73144 11.0669L5.57083 10.9292L3.59305 12.8794L3.79496 13.0401C4.27679 13.4301 4.75861 13.8569 5.22667 14.3066C5.70391 14.7655 6.13067 15.2289 6.49778 15.6878C6.86947 16.1467 7.17233 16.6148 7.39719 17.0828C7.61745 17.5279 7.72758 17.9547 7.72758 18.3585C7.72758 18.5742 7.69087 18.7669 7.62204 18.9321C7.56239 19.079 7.44308 19.2074 7.26411 19.3222C7.08056 19.4415 6.80982 19.5332 6.46566 19.5975C6.10773 19.6663 5.63508 19.6984 5.07065 19.6984H0.674561V22.3875H5.35516C6.35553 22.3875 7.19069 22.2498 7.84689 21.9791M37.3026 17.1287C37.3026 16.7387 37.3668 16.3761 37.4953 16.0595C37.6192 15.7429 37.7981 15.4675 38.0184 15.2381C38.2387 15.0178 38.5002 14.8389 38.8031 14.7104C39.106 14.5819 39.4318 14.5177 39.7759 14.5177C40.0834 14.5177 40.3908 14.5681 40.6845 14.6691C40.9644 14.7655 41.2168 14.9261 41.4279 15.1509C41.6482 15.3849 41.8271 15.7016 41.9556 16.0916C42.0933 16.4909 42.1575 17.0002 42.1575 17.6105V19.703H40.3404C39.8585 19.703 39.4226 19.6388 39.0417 19.5103C38.67 19.3864 38.3488 19.2074 38.0964 18.9826C37.844 18.7669 37.6467 18.5008 37.509 18.1841C37.3668 17.8675 37.298 17.5142 37.298 17.1287" fill="white"/>
<path d="M40.0375 9.64905C40.8543 9.64905 41.5151 8.98826 41.5151 8.17145C41.5151 7.35464 40.8497 6.69385 40.0375 6.69385C39.2253 6.69385 38.5553 7.35464 38.5553 8.17604C38.5553 8.99744 39.2207 9.65364 40.0375 9.65364" fill="white"/>
<path d="M51.1333 5.20215H48.4442V22.4057H51.1333V5.20215Z" fill="white"/>
<path d="M64.8355 15.752C64.6979 15.1554 64.5006 14.6323 64.2619 14.1964C64.0233 13.765 63.7342 13.3979 63.4084 13.1042C63.078 12.8151 62.743 12.5903 62.3805 12.4205C62.0226 12.2507 61.6509 12.136 61.2792 12.0671C60.0081 11.8469 58.893 11.9983 57.9569 12.3838C57.2823 12.6591 56.695 13.0446 56.2131 13.531C55.7313 14.022 55.355 14.5956 55.0981 15.2472C54.8411 15.8988 54.708 16.6055 54.708 17.3443C54.708 17.9317 54.8044 18.5374 55.0017 19.1385C55.1898 19.7442 55.5065 20.2995 55.9378 20.7859C56.3692 21.2723 56.929 21.6715 57.6036 21.9744C58.2827 22.2819 59.1179 22.4333 60.0815 22.4333C60.2605 22.4333 60.4532 22.4241 60.6689 22.4058C60.8846 22.3874 61.1048 22.3599 61.3343 22.3232C61.5637 22.2865 61.7977 22.2314 62.0318 22.1626C62.096 22.1442 62.1603 22.1213 62.2245 22.0983C62.1098 22.3874 61.9538 22.6627 61.7564 22.9197C61.4628 23.3052 61.0681 23.6493 60.5909 23.943C60.1045 24.2413 59.5125 24.4845 58.8334 24.6772C58.145 24.87 57.3466 24.9984 56.4518 25.0673L56.2131 25.0856L56.5022 27.6875L56.7317 27.6646C57.9248 27.5498 59.0399 27.3387 60.0402 27.0359C61.0589 26.733 61.9492 26.2787 62.688 25.6776C63.4314 25.0765 64.0187 24.2964 64.4317 23.3602C64.8447 22.4241 65.0558 21.2586 65.0558 19.8957V17.8215C65.0558 17.0414 64.987 16.3439 64.8447 15.7474M62.3668 18.5282V19.4414C62.3071 19.4643 62.2383 19.4827 62.1603 19.5056C62.0042 19.5515 61.8344 19.5882 61.6463 19.6249C61.4582 19.6616 61.2608 19.6892 61.0544 19.7075C60.2513 19.7855 59.5355 19.7121 59.0031 19.524C58.6131 19.3817 58.2965 19.1936 58.0533 18.9641C57.81 18.7301 57.6357 18.4686 57.521 18.1657C57.4108 17.8536 57.3512 17.5278 57.3512 17.1837C57.3512 16.7799 57.4154 16.4128 57.5439 16.0915C57.6724 15.7657 57.8514 15.4812 58.0716 15.2472C58.2873 15.0178 58.5534 14.8342 58.8517 14.7103C59.1546 14.5818 59.4804 14.5176 59.8245 14.5176C60.1366 14.5176 60.4486 14.568 60.7561 14.6736C61.0498 14.77 61.3113 14.9581 61.5408 15.2334C61.7794 15.5133 61.9767 15.9218 62.1235 16.4449C62.2796 16.9726 62.3576 17.6747 62.3576 18.5328" fill="white"/>
<path d="M17.3412 46.6991L13.9638 33.3594L13.9225 33.1851H10.2239L6.85111 46.6946L3.12499 33.3548L3.0791 33.1851H0L5.11195 50.0995H8.63158L12.0732 36.3468L15.4965 50.0995H18.8968L24.1005 33.1851H21.1178L17.3412 46.6991Z" fill="white"/>
<path d="M34.9027 49.0669C34.8889 48.7182 34.8797 48.1996 34.8797 47.5113V42.5416C34.8797 40.8483 34.4805 39.5451 33.6958 38.6687C32.9111 37.783 31.6079 37.3379 29.8182 37.3379C29.0336 37.3379 28.2902 37.448 27.6064 37.6637C26.9319 37.8794 26.3078 38.1593 25.7388 38.4989L25.6195 38.5723L25.7709 41.0502L26.1197 40.7657C26.5556 40.4078 27.0741 40.1233 27.6661 39.9122C28.2535 39.7057 28.8592 39.6002 29.4603 39.6002C30.502 39.6002 31.2224 39.8388 31.6033 40.3069C31.9612 40.7428 32.1585 41.3944 32.1861 42.2479C32.0576 42.2388 31.9337 42.2342 31.8144 42.2296C31.6217 42.2204 31.4335 42.2204 31.25 42.2204H30.0752C29.4833 42.2204 28.85 42.2938 28.1938 42.4315C27.5147 42.5646 26.8814 42.794 26.3078 43.1106C26.0187 43.2712 25.748 43.4594 25.5002 43.6659C25.2478 43.877 25.0229 44.1202 24.8394 44.3909C24.6558 44.6617 24.509 44.9691 24.408 45.3041C24.3071 45.6391 24.2566 46.0108 24.2566 46.4054C24.2566 47.0937 24.3713 47.6995 24.6008 48.1996C24.8302 48.7044 25.1606 49.1266 25.5782 49.4524C25.9958 49.7782 26.4913 50.0168 27.0604 50.1682C27.6202 50.3151 28.2397 50.3885 28.8959 50.3885C29.4144 50.3885 29.8917 50.3243 30.3184 50.1958C30.7452 50.0673 31.1215 49.9021 31.4381 49.7139C31.7639 49.5212 32.0438 49.3101 32.2733 49.0807C32.3329 49.021 32.388 48.9614 32.4385 48.9063V50.104H35.0174L34.9715 49.8333C34.944 49.6681 34.921 49.4111 34.9073 49.0669M32.1998 44.368V45.1985C32.1998 46.0383 31.9429 46.722 31.4106 47.2956C30.892 47.8601 30.1303 48.1308 29.0932 48.1308C28.8592 48.1308 28.6297 48.0895 28.3911 48.0115C28.1525 47.9289 27.9277 47.8142 27.7303 47.6673C27.533 47.5205 27.3816 47.3415 27.2577 47.1258C27.1384 46.9194 27.0833 46.6853 27.0833 46.4054C27.0833 45.9373 27.2164 45.5748 27.4963 45.3041C27.79 45.015 28.1479 44.8039 28.5655 44.6662C29.006 44.5056 29.4511 44.4093 29.8779 44.3817L30.5203 44.3404C30.7085 44.3267 30.8737 44.3221 31.0251 44.3221C31.25 44.3221 31.4794 44.3313 31.7134 44.345C31.8786 44.3542 32.0392 44.3634 32.1998 44.3634" fill="white"/>
<path d="M43.8646 31.6753C43.011 31.6753 42.2952 31.7992 41.7491 32.0424C41.1939 32.2856 40.7488 32.6435 40.4275 33.0978C40.1155 33.5475 39.8952 34.089 39.7805 34.7131C39.6658 35.328 39.6107 36.0117 39.6107 36.7414V37.627H36.7794V39.8709H39.6107V50.0994H42.286V39.8709H45.4707V37.627H42.286V36.5578C42.286 36.1632 42.309 35.7915 42.3503 35.4565C42.3961 35.1399 42.4833 34.8645 42.6164 34.6397C42.7403 34.424 42.9284 34.2542 43.1717 34.1303C43.5204 33.9514 44.0986 33.8871 44.7456 33.9697C44.9246 33.9926 45.0714 34.0202 45.1816 34.0615L45.4752 34.167L45.5945 31.8588L44.686 31.7304C44.4336 31.6936 44.1582 31.6753 43.8646 31.6753Z" fill="white"/>
<path d="M50.2981 37.627H47.6136V50.104H50.2981V37.627Z" fill="white"/>
<path d="M48.9581 32.437C48.1413 32.437 47.476 33.1024 47.476 33.9192C47.476 34.736 48.1413 35.3968 48.9581 35.3968C49.775 35.3968 50.4357 34.736 50.4357 33.9146C50.4357 33.0932 49.7704 32.437 48.9581 32.437Z" fill="white"/>
<path d="M62.2979 38.8661C61.9813 38.5036 61.5912 38.187 61.137 37.9208C60.467 37.5354 59.5813 37.3381 58.503 37.3381C57.5944 37.3381 56.7913 37.5124 56.1122 37.8566C55.4376 38.2008 54.864 38.6734 54.4143 39.2562C53.9646 39.8344 53.6251 40.5135 53.4048 41.2753C53.1891 42.0278 53.079 42.8263 53.079 43.6477C53.079 44.4691 53.1799 45.2997 53.3773 46.1027C53.5792 46.9012 53.9004 47.6262 54.3317 48.2595C54.7723 48.8973 55.3367 49.4158 56.0158 49.8013C56.6996 50.1914 57.5256 50.3887 58.48 50.3887C59.0261 50.3887 59.5355 50.3244 59.9943 50.1959C60.4395 50.0675 60.8524 49.9023 61.2196 49.6958C61.5821 49.4893 61.8941 49.2644 62.1557 49.0258C62.2429 48.9478 62.3209 48.8652 62.3943 48.7872V50.0996H64.9732V31.96H62.3025V38.8616L62.2979 38.8661ZM61.4628 40.9036C61.7427 41.3074 61.9538 41.7709 62.0914 42.2802C62.2291 42.7942 62.3025 43.3357 62.3025 43.8817C62.3025 44.359 62.2383 44.8591 62.1052 45.3685C61.9813 45.8641 61.7794 46.3276 61.5086 46.7406C61.2471 47.1444 60.9029 47.4794 60.4899 47.7409C60.0769 47.9979 59.5859 48.1264 58.9986 48.1264C58.6315 48.1264 58.3011 48.0621 58.0166 47.9382C57.7229 47.8098 57.4567 47.64 57.2273 47.4289C56.9933 47.2132 56.7913 46.9608 56.6261 46.6763C56.4564 46.3872 56.3141 46.0752 56.204 45.754C56.0938 45.4327 56.0112 45.1024 55.9654 44.772C55.9195 44.437 55.8965 44.1203 55.9057 43.8221V43.8083C55.8919 43.276 55.9378 42.7483 56.0525 42.2389C56.1673 41.7342 56.3508 41.2753 56.5986 40.8852C56.8418 40.4998 57.163 40.1831 57.5577 39.9491C57.9431 39.7151 58.4158 39.5958 58.9756 39.5958C59.5355 39.5958 60.0173 39.7151 60.4257 39.9491C60.8387 40.1831 61.1874 40.5044 61.4628 40.9036Z" fill="white"/>
<path d="M85.2603 20.8458C85.5127 21.0293 85.8247 21.1073 86.1322 21.0614L92.0151 20.162C93.6211 19.9188 94.7821 18.4596 94.6674 16.8397L93.8093 5.07398C93.7772 4.67934 93.5569 4.33059 93.2127 4.14245C93.0384 4.04149 92.841 3.99561 92.6391 3.99561C92.451 3.99561 92.2583 4.04149 92.0839 4.12868C91.6067 4.37648 91.1248 4.65181 90.6476 4.93631C90.2713 5.16117 90.0602 5.57875 90.0923 6.02386L90.7944 15.6833C90.8311 16.1606 90.487 16.5828 90.0143 16.6562L85.5586 17.3399C85.2465 17.3858 84.9758 17.551 84.7877 17.8034C84.6041 18.0558 84.5261 18.3632 84.5766 18.6753L84.7922 20.0932C84.8381 20.4007 85.0033 20.6714 85.2557 20.8595" fill="#D02C2F"/>
<path d="M126.083 40.1143L121.352 31.6663C121.117 31.2487 121.246 30.721 121.636 30.4549L125.39 27.9448C125.651 27.7704 125.826 27.5088 125.89 27.1968C125.95 26.8939 125.89 26.5819 125.711 26.3203L124.912 25.1272C124.688 24.7922 124.32 24.6133 123.94 24.6133C123.715 24.6133 123.49 24.6775 123.293 24.8106L118.346 28.1191C116.992 29.0186 116.561 30.8357 117.359 32.2537L123.123 42.5464C123.316 42.8906 123.669 43.1108 124.059 43.1384C124.091 43.1384 124.119 43.1384 124.142 43.1384C124.518 43.1384 124.857 42.9686 125.078 42.6703C125.399 42.2481 125.725 41.7984 126.041 41.3304C126.289 40.9678 126.303 40.4998 126.083 40.1143Z" fill="#D02C2F"/>
<path d="M99.9123 40.5318C99.2791 39.0358 97.5766 38.2695 96.0394 38.7926L84.8564 42.5417C84.4847 42.6656 84.2002 42.9684 84.0992 43.3493C83.9983 43.7348 84.0992 44.1432 84.3654 44.4414C84.7325 44.8498 85.1134 45.2491 85.5034 45.6345C85.8063 45.9328 86.2835 46.0475 86.6919 45.9053L95.8742 42.8262C95.9751 42.7941 96.0761 42.7803 96.1724 42.7803C96.535 42.7803 96.8653 42.9914 97.0168 43.3401L98.7835 47.4884C98.9028 47.7775 99.1322 47.9978 99.4213 48.1171C99.7058 48.2318 100.032 48.2318 100.316 48.1079L101.633 47.5481C101.922 47.4288 102.142 47.1993 102.257 46.9056C102.377 46.6165 102.372 46.2953 102.248 46.0108L99.9169 40.5318H99.9123Z" fill="#6F1D46"/>
<path d="M129.671 19.244V19.2211C129.542 18.7897 129.175 18.4639 128.721 18.3905L118.36 16.7385C117.891 16.6651 117.552 16.2337 117.593 15.7611L117.956 11.264C117.979 10.952 117.882 10.6491 117.68 10.4105C117.474 10.1719 117.194 10.0251 116.882 10.0021L115.455 9.8874C115.418 9.8874 115.381 9.88281 115.345 9.88281C115.074 9.88281 114.817 9.97918 114.601 10.1627C114.363 10.3646 114.22 10.6491 114.193 10.9612L113.72 16.8991C113.592 18.5144 114.744 19.9828 116.35 20.2398L128.703 22.213C129.056 22.2589 129.469 22.1396 129.74 21.8642C130.001 21.5889 130.112 21.2126 130.038 20.8409C129.937 20.3178 129.813 19.7809 129.676 19.244" fill="white"/>
<path d="M87.174 31.8633L84.9117 35.7684C84.7557 36.0391 84.7144 36.3558 84.797 36.654C84.875 36.9569 85.0677 37.2093 85.3385 37.3699L86.582 38.0858C87.1235 38.3978 87.8715 38.1913 88.179 37.659L91.1571 32.5057C91.9739 31.1016 91.5655 29.2844 90.2256 28.362L80.5156 21.6669C80.3183 21.5293 80.0889 21.4604 79.8502 21.4604C79.7034 21.4604 79.552 21.488 79.4143 21.543C79.0426 21.6945 78.7764 22.0203 78.6984 22.4149C78.5975 22.9289 78.5057 23.4612 78.4277 24.0394C78.368 24.4707 78.5608 24.8975 78.9279 25.1499L86.9033 30.6473C87.2933 30.918 87.4126 31.4503 87.174 31.8587" fill="white"/>
<path d="M102.069 13.2511C102.643 13.7834 103.4 14.0771 104.194 14.0771C104.988 14.0771 105.74 13.7834 106.318 13.2557L115.368 4.93157C115.666 4.65624 115.799 4.25701 115.725 3.86238C115.652 3.45856 115.381 3.12816 115 2.97673C114.482 2.77024 113.954 2.5775 113.422 2.39854C113.018 2.26546 112.582 2.36183 112.27 2.65551L104.832 9.50663C104.474 9.83244 103.932 9.82785 103.583 9.50663L100.275 6.44129C100.068 6.24856 99.7563 6.12925 99.4718 6.12925H99.4351C99.1231 6.14302 98.834 6.2761 98.6229 6.50554L97.6501 7.55638C97.439 7.78582 97.3243 8.07951 97.338 8.39613C97.3518 8.70817 97.4849 8.99727 97.7143 9.21294L102.078 13.2649L102.069 13.2511Z" fill="#009845"/>
<path d="M117.901 39.8754L112.192 38.1913C111.903 38.1041 111.609 38.0674 111.32 38.0674C110.054 38.0674 108.861 38.8475 108.383 40.0819L103.992 51.5677C103.845 51.944 103.905 52.3616 104.148 52.6828C104.373 52.9811 104.717 53.1554 105.093 53.1554C105.125 53.1554 105.158 53.1554 105.19 53.1508C105.754 53.105 106.319 53.0407 106.86 52.9627C107.273 52.9076 107.626 52.6185 107.778 52.2239L111.394 42.7755C111.564 42.3304 112.045 42.078 112.509 42.2249L116.836 43.5006C117.139 43.5877 117.456 43.551 117.726 43.4042C118.002 43.2528 118.204 43.005 118.291 42.7067L118.695 41.33C118.878 40.7105 118.52 40.0589 117.901 39.8754Z" fill="#009845"/>
<path d="M105.13 55.6106C104.052 55.6106 103.065 55.115 102.418 54.2569C101.721 53.3253 101.551 52.1185 101.968 51.0309L102.436 49.8057L101.165 50.3472C100.353 50.6959 99.4216 50.7051 98.5864 50.3747C97.7467 50.0351 97.0905 49.3927 96.7371 48.5667L95.4155 45.4601L87.2704 48.195C86.091 48.5942 84.7052 48.273 83.8242 47.3966C83.4066 46.9836 82.989 46.5476 82.5944 46.1071C81.828 45.2536 81.5435 44.0834 81.8326 42.9775C82.1263 41.8762 82.9431 40.9997 84.0215 40.6418L85.4348 40.1692C85.4073 40.1554 85.3844 40.1416 85.3568 40.1233L84.1087 39.4028C83.324 38.9485 82.7641 38.2189 82.5347 37.347C82.3053 36.4798 82.4246 35.5758 82.8697 34.7911L84.563 31.8634L77.487 26.9901C76.4316 26.2604 75.8809 25.0215 76.0553 23.7641C76.1471 23.1171 76.2434 22.5389 76.3536 21.9928C76.5738 20.8732 77.3402 19.9416 78.4002 19.5149C79.4372 19.0927 80.6625 19.2258 81.5848 19.8636L82.5072 20.5015C82.5026 20.4693 82.498 20.4372 82.4888 20.4005L82.2685 18.978C82.1309 18.0877 82.3466 17.1975 82.8835 16.4679C83.4158 15.7383 84.2004 15.2656 85.0953 15.128L88.4313 14.6186L87.8073 6.04667C87.7155 4.76639 88.335 3.56871 89.4271 2.91251C89.9457 2.60047 90.4734 2.30678 90.9919 2.03604C91.9923 1.5175 93.2221 1.53127 94.2041 2.07734C95.1999 2.63259 95.8469 3.64213 95.9295 4.77557L96.0121 5.92736L96.9803 4.8857C97.5906 4.22491 98.4212 3.84404 99.3252 3.80733H99.4353C100.293 3.80733 101.138 4.13313 101.753 4.70674L104.226 7.00115L110.866 0.888835C111.756 0.0720241 113.064 -0.212483 114.207 0.163801C114.771 0.351942 115.349 0.563029 115.918 0.787881C117.006 1.21923 117.781 2.16453 117.997 3.31632C118.208 4.46353 117.823 5.61991 116.965 6.40919L115.671 7.60228C115.707 7.60228 115.749 7.60687 115.785 7.61146L117.18 7.72159C118.08 7.79502 118.897 8.2126 119.484 8.89633C120.067 9.58466 120.351 10.4565 120.278 11.3514L120.007 14.7196L129.295 16.2017C130.612 16.4128 131.686 17.3765 132.025 18.6659C132.177 19.2533 132.305 19.8269 132.424 20.4097C132.64 21.5018 132.319 22.5848 131.548 23.3924C130.791 24.1771 129.685 24.5488 128.597 24.3882L127.065 24.145L127.735 25.1408C128.235 25.8933 128.414 26.7927 128.239 27.6738C128.06 28.564 127.551 29.3304 126.798 29.826L123.995 31.7028L128.194 39.2009C128.822 40.316 128.772 41.6697 128.056 42.7297C127.725 43.2162 127.377 43.7072 127.014 44.1798C126.312 45.1067 125.206 45.6023 124.068 45.506C122.948 45.428 121.944 44.7901 121.384 43.7943L120.769 42.6976L120.53 43.5052C120.278 44.3679 119.7 45.0792 118.91 45.5152C118.126 45.9373 117.19 46.0383 116.341 45.7905L113.101 44.836L109.88 53.2657C109.444 54.4129 108.42 55.2297 107.213 55.3995C106.612 55.4867 106.002 55.5555 105.396 55.606C105.314 55.6152 105.217 55.6197 105.121 55.6197M103.285 48.3235C103.363 48.3235 103.441 48.3465 103.51 48.3878C103.675 48.4933 103.749 48.7044 103.675 48.8879L102.739 51.3338C102.427 52.1552 102.551 53.0592 103.079 53.7613C103.565 54.4129 104.309 54.7846 105.121 54.7846C105.19 54.7846 105.263 54.7846 105.327 54.7754C105.919 54.7295 106.511 54.6607 107.099 54.5781C108.007 54.4496 108.774 53.8347 109.104 52.972L112.463 44.1798C112.541 43.9779 112.761 43.8678 112.968 43.9274L116.575 44.992C117.217 45.1802 117.919 45.1022 118.511 44.7855C119.108 44.4597 119.539 43.9228 119.732 43.2758L120.14 41.8854C120.172 41.7753 120.2 41.6559 120.214 41.5412C120.236 41.3623 120.374 41.22 120.549 41.1879C120.727 41.1558 120.902 41.2384 120.989 41.3944L122.109 43.3951C122.526 44.1431 123.283 44.6249 124.128 44.6846C124.986 44.758 125.816 44.3817 126.349 43.6842C126.702 43.2207 127.042 42.7481 127.363 42.2709C127.9 41.4724 127.941 40.4583 127.468 39.6139L123.077 31.7808C122.971 31.5927 123.026 31.354 123.21 31.2301L126.335 29.1376C126.899 28.7614 127.285 28.1878 127.418 27.5178C127.551 26.857 127.418 26.1778 127.037 25.6088L126.229 24.4066C126.106 24.223 125.945 24.0532 125.734 23.8788C125.587 23.7595 125.541 23.5576 125.619 23.3833C125.697 23.2135 125.872 23.1125 126.064 23.1446L128.717 23.5668C129.511 23.6861 130.369 23.4062 130.938 22.8142C131.52 22.2085 131.759 21.3917 131.598 20.5749C131.484 20.0013 131.36 19.4506 131.213 18.877C130.956 17.9088 130.148 17.1838 129.157 17.0277L119.489 15.4859C119.273 15.4492 119.121 15.2564 119.14 15.0408L119.443 11.2917C119.498 10.6171 119.282 9.96094 118.841 9.4424C118.401 8.92387 117.786 8.61183 117.111 8.55676L115.707 8.44663C115.308 8.40533 114.909 8.46957 114.51 8.63936C114.326 8.71737 114.106 8.64854 114 8.47875C113.895 8.30896 113.922 8.08411 114.069 7.94645L116.4 5.80347C117.047 5.20692 117.336 4.33963 117.18 3.47693C117.02 2.60964 116.432 1.89838 115.616 1.57257C115.06 1.35231 114.5 1.14581 113.95 0.962256C113.096 0.677749 112.105 0.893424 111.435 1.50833L104.515 7.8822C104.355 8.02905 104.107 8.02905 103.951 7.8822L101.193 5.32623C100.729 4.89488 100.096 4.64708 99.4491 4.64708H99.3573C98.6874 4.67461 98.0633 4.96371 97.6044 5.4593L96.6224 6.51932C96.3884 6.76712 96.214 7.0608 96.0947 7.3912C96.0304 7.57475 95.8469 7.68947 95.645 7.66653C95.4477 7.639 95.3008 7.47839 95.287 7.28566L95.1081 4.85358C95.0438 4.00006 94.562 3.2429 93.8094 2.82532C93.0798 2.4215 92.1299 2.40774 91.3911 2.79779C90.8864 3.05935 90.3724 3.34845 89.8676 3.65131C89.0462 4.14231 88.5828 5.04631 88.6516 6.00996L89.3032 14.9628C89.317 15.1784 89.1656 15.3712 88.9499 15.4033L85.2329 15.9723C84.563 16.0733 83.971 16.4312 83.5672 16.9818C83.1634 17.5279 82.9982 18.1979 83.1037 18.8678L83.324 20.295C83.3836 20.7034 83.5534 21.0934 83.8196 21.4422C83.9435 21.6074 83.9297 21.8368 83.792 21.9837C83.6498 22.1305 83.4249 22.158 83.2506 22.0387L81.1168 20.5703C80.4238 20.0885 79.5015 19.9875 78.7214 20.3087C77.9229 20.6345 77.3447 21.332 77.1795 22.1764C77.0694 22.7133 76.9776 23.2731 76.8904 23.9018C76.762 24.8471 77.175 25.7786 77.9734 26.3247L85.366 31.4183C85.545 31.5422 85.6 31.7808 85.4899 31.9735L83.6039 35.2316C83.2643 35.819 83.1771 36.5027 83.3515 37.1543C83.5259 37.8105 83.9481 38.3612 84.5354 38.7007L85.7836 39.4212C86.0956 39.6047 86.4627 39.7103 86.8803 39.7378C87.0776 39.7516 87.2382 39.903 87.2658 40.1003C87.2933 40.2977 87.174 40.4858 86.9859 40.55L84.2922 41.454C83.48 41.7248 82.8651 42.381 82.6448 43.2116C82.4292 44.0421 82.6448 44.9278 83.2184 45.5702C83.6039 45.997 84.0077 46.4192 84.4161 46.8276C85.0677 47.4746 86.1369 47.7224 87.0088 47.4287L95.5211 44.5699C95.7322 44.5056 95.9524 44.602 96.0396 44.8039L97.5126 48.2639C97.7788 48.8879 98.2744 49.3743 98.903 49.6267C99.5363 49.8791 100.234 49.8699 100.844 49.6084L102.175 49.0394C102.487 48.9063 102.767 48.7136 103.001 48.4704C103.083 48.3878 103.189 48.3419 103.304 48.3419" fill="white"/>
</svg>
